<svg width="34" height="34" viewBox="0 0 34 34" fill="none" xmlns="http://www.w3.org/2000/svg">
<rect width="34" height="34" rx="17" fill="#F3F4F6"/>
<path d="M20 23.75V22.25C20 21.4544 19.6839 20.6913 19.1213 20.1287C18.5587 19.5661 17.7956 19.25 17 19.25H12.5C11.7044 19.25 10.9413 19.5661 10.3787 20.1287C9.81607 20.6913 9.5 21.4544 9.5 22.25V23.75" stroke="#8E25FF" stroke-width="1.5" stroke-linecap="round" stroke-linejoin="round"/>
<path d="M20 10.346C20.6433 10.5128 21.213 10.8885 21.6198 11.4141C22.0265 11.9397 22.2471 12.5854 22.2471 13.25C22.2471 13.9146 22.0265 14.5604 21.6198 15.086C21.213 15.6116 20.6433 15.9872 20 16.154" stroke="#8E25FF" stroke-width="1.5" stroke-linecap="round" stroke-linejoin="round"/>
<path d="M24.5 23.75V22.25C24.4995 21.5853 24.2783 20.9396 23.871 20.4142C23.4638 19.8889 22.8936 19.5137 22.25 19.3475" stroke="#8E25FF" stroke-width="1.5" stroke-linecap="round" stroke-linejoin="round"/>
<path d="M14.75 16.25C16.4069 16.25 17.75 14.9069 17.75 13.25C17.75 11.5931 16.4069 10.25 14.75 10.25C13.0931 10.25 11.75 11.5931 11.75 13.25C11.75 14.9069 13.0931 16.25 14.75 16.25Z" stroke="#8E25FF" stroke-width="1.5" stroke-linecap="round" stroke-linejoin="round"/>
</svg>
