<svg width="34" height="34" viewBox="0 0 34 34" fill="none" xmlns="http://www.w3.org/2000/svg">
<rect width="34" height="34" rx="17" fill="#F3F4F6"/>
<g clip-path="url(#clip0_214_71)">
<path d="M12.35 16.475L9.5 24.5L17.525 21.6575" stroke="#8E25FF" stroke-width="1.5" stroke-linecap="round" stroke-linejoin="round"/>
<path d="M11 10.25H11.0075" stroke="#8E25FF" stroke-width="1.5" stroke-linecap="round" stroke-linejoin="round"/>
<path d="M24.5 14H24.5075" stroke="#8E25FF" stroke-width="1.5" stroke-linecap="round" stroke-linejoin="round"/>
<path d="M19.25 9.5H19.2575" stroke="#8E25FF" stroke-width="1.5" stroke-linecap="round" stroke-linejoin="round"/>
<path d="M24.5 23H24.5075" stroke="#8E25FF" stroke-width="1.5" stroke-linecap="round" stroke-linejoin="round"/>
<path d="M24.5 9.5L22.82 10.0625C22.3418 10.2218 21.9337 10.5422 21.6656 10.969C21.3975 11.3959 21.2859 11.9025 21.35 12.4025C21.425 13.0475 20.9225 13.625 20.2625 13.625H19.9775C19.3325 13.625 18.7775 14.075 18.6575 14.705L18.5 15.5" stroke="#8E25FF" stroke-width="1.5" stroke-linecap="round" stroke-linejoin="round"/>
<path d="M24.5 17.75L23.885 17.5025C23.24 17.2475 22.52 17.6525 22.4 18.335C22.3175 18.86 21.86 19.25 21.3275 19.25H20.75" stroke="#8E25FF" stroke-width="1.5" stroke-linecap="round" stroke-linejoin="round"/>
<path d="M16.25 9.5L16.4975 10.115C16.7525 10.76 16.3475 11.48 15.665 11.6C15.14 11.675 14.75 12.14 14.75 12.6725V13.25" stroke="#8E25FF" stroke-width="1.5" stroke-linecap="round" stroke-linejoin="round"/>
<path d="M16.25 17.75C17.6975 19.1975 18.3725 20.8775 17.75 21.5C17.1275 22.1225 15.4475 21.4475 14 20C12.5525 18.5525 11.8775 16.8725 12.5 16.25C13.1225 15.6275 14.8025 16.3025 16.25 17.75Z" stroke="#8E25FF" stroke-width="1.5" stroke-linecap="round" stroke-linejoin="round"/>
</g>
<defs>
<clipPath id="clip0_214_71">
<rect width="18" height="18" fill="white" transform="translate(8 8)"/>
</clipPath>
</defs>
</svg>
