<svg width="34" height="34" viewBox="0 0 34 34" fill="none" xmlns="http://www.w3.org/2000/svg">
<rect width="34" height="34" rx="17" fill="#F3F4F6"/>
<path d="M9.5 15.125C9.50002 14.2904 9.7532 13.4754 10.2261 12.7877C10.699 12.1001 11.3694 11.572 12.1487 11.2733C12.928 10.9746 13.7796 10.9193 14.591 11.1148C15.4024 11.3102 16.1354 11.7472 16.6932 12.368C16.7325 12.41 16.78 12.4435 16.8328 12.4664C16.8856 12.4893 16.9425 12.5011 17 12.5011C17.0575 12.5011 17.1144 12.4893 17.1672 12.4664C17.22 12.4435 17.2675 12.41 17.3068 12.368C17.8628 11.7432 18.596 11.3025 19.4087 11.1047C20.2214 10.9069 21.0751 10.9613 21.8562 11.2606C22.6372 11.56 23.3085 12.0901 23.7808 12.7804C24.2531 13.4708 24.504 14.2886 24.5 15.125C24.5 16.8425 23.375 18.125 22.25 19.25L18.131 23.2347C17.9913 23.3953 17.8189 23.5242 17.6255 23.613C17.4321 23.7018 17.222 23.7484 17.0092 23.7497C16.7964 23.7511 16.5857 23.7071 16.3912 23.6208C16.1967 23.5345 16.0228 23.4077 15.881 23.249L11.75 19.25C10.625 18.125 9.5 16.85 9.5 15.125Z" stroke="#8E25FF" stroke-width="1.5" stroke-linecap="round" stroke-linejoin="round"/>
</svg>
